<svg xmlns="http://www.w3.org/2000/svg" viewBox="0 0 256 256" role="img" aria-label="Bear favicon">
  <defs>
    <linearGradient id="bearBody" x1="72" y1="48" x2="188" y2="212" gradientUnits="userSpaceOnUse">
      <stop offset="0" stop-color="#f0ddcf" />
      <stop offset="0.42" stop-color="#e3c1a6" />
      <stop offset="1" stop-color="#cc9f7d" />
    </linearGradient>
    <linearGradient id="bearEar" x1="66" y1="38" x2="98" y2="96" gradientUnits="userSpaceOnUse">
      <stop offset="0" stop-color="#f0ddcf" />
      <stop offset="1" stop-color="#ddb28f" />
    </linearGradient>
    <linearGradient id="bearSnout" x1="102" y1="108" x2="154" y2="156" gradientUnits="userSpaceOnUse">
      <stop offset="0" stop-color="#ffffff" />
      <stop offset="1" stop-color="#f2dfcf" />
    </linearGradient>
    <filter id="bearShadow" x="-20%" y="-20%" width="140%" height="160%">
      <feDropShadow dx="0" dy="10" stdDeviation="10" flood-color="#5f3f2a" flood-opacity="0.18" />
    </filter>
  </defs>

  <rect width="256" height="256" fill="#efe4d5" />
  <ellipse cx="128" cy="214" rx="62" ry="12" fill="#c8ae95" opacity="0.24" />

  <ellipse
    cx="79"
    cy="76"
    rx="30"
    ry="22"
    fill="url(#bearEar)"
    stroke="#6a462f"
    stroke-width="4"
    transform="rotate(-28 79 76)"
  />
  <ellipse cx="79" cy="76" rx="12" ry="8" fill="#f2dfcf" opacity="0.88" transform="rotate(-28 79 76)" />
  <ellipse cx="71" cy="67" rx="8" ry="4" fill="#ffffff" opacity="0.34" transform="rotate(-28 71 67)" />

  <ellipse
    cx="177"
    cy="76"
    rx="30"
    ry="22"
    fill="url(#bearEar)"
    stroke="#6a462f"
    stroke-width="4"
    transform="rotate(28 177 76)"
  />
  <ellipse cx="177" cy="76" rx="12" ry="8" fill="#f2dfcf" opacity="0.88" transform="rotate(28 177 76)" />
  <ellipse cx="185" cy="67" rx="8" ry="4" fill="#ffffff" opacity="0.34" transform="rotate(28 185 67)" />

  <g filter="url(#bearShadow)">
    <circle cx="128" cy="138" r="82" fill="url(#bearBody)" stroke="#6a462f" stroke-width="4" />
  </g>

  <path
    d="M92 85 C103 76 116 71 130 71 C146 71 160 76 170 85"
    fill="none"
    stroke="#ffffff"
    stroke-linecap="round"
    stroke-width="8"
    opacity="0.34"
  />

  <ellipse cx="97" cy="155" rx="18" ry="11" fill="#f4e4d8" opacity="0.82" />
  <ellipse cx="159" cy="155" rx="18" ry="11" fill="#f4e4d8" opacity="0.82" />
  <ellipse cx="104" cy="182" rx="14" ry="8" fill="#ffffff" opacity="0.12" />
  <ellipse cx="164" cy="195" rx="12" ry="7" fill="#ffffff" opacity="0.1" />

  <ellipse
    cx="128"
    cy="149"
    rx="31"
    ry="25"
    fill="url(#bearSnout)"
    stroke="#cfac90"
    stroke-width="1.5"
    opacity="0.98"
  />
  <ellipse cx="118" cy="139" rx="10" ry="6" fill="#ffffff" opacity="0.3" />

  <circle cx="107" cy="127" r="6" fill="#6a462f" />
  <circle cx="149" cy="127" r="6" fill="#6a462f" />
  <ellipse cx="128" cy="138" rx="8" ry="6.5" fill="#6a462f" />

  <path
    d="M128 145 Q122 154 113 154"
    fill="none"
    stroke="#6a462f"
    stroke-linecap="round"
    stroke-width="4"
  />
  <path
    d="M128 145 Q134 154 143 154"
    fill="none"
    stroke="#6a462f"
    stroke-linecap="round"
    stroke-width="4"
  />
</svg>
